<mxfile host="app.diagrams.net" modified="2022-12-19T12:12:53.781Z" agent="5.0 (Windows NT 10.0; Win64; x64) AppleWebKit/537.36 (KHTML, like Gecko) Chrome/108.0.0.0 Safari/537.36" version="20.7.4" etag="Pi6Ozaw_wg9hbeVTYWM4" type="github">
  <diagram id="F16QGHU6sUbXVjKTvUNp" name="Pagina-1">
    <mxGraphModel dx="1050" dy="541" grid="1" gridSize="10" guides="1" tooltips="1" connect="1" arrows="1" fold="1" page="1" pageScale="1" pageWidth="827" pageHeight="1169" math="0" shadow="0">
      <root>
        <mxCell id="0" />
        <mxCell id="1" parent="0" />
        <mxCell id="O6g38xV-sDOq5T4I93U4-1" value="&lt;b&gt;Frame Home Admin&lt;/b&gt;" style="rounded=1;whiteSpace=wrap;html=1;verticalAlign=top;" vertex="1" parent="1">
          <mxGeometry x="224" y="325" width="380" height="590" as="geometry" />
        </mxCell>
        <mxCell id="O6g38xV-sDOq5T4I93U4-2" value="" style="ellipse;html=1;shape=startState;fillColor=#000000;strokeColor=#000000;" vertex="1" parent="1">
          <mxGeometry x="399" y="255" width="30" height="30" as="geometry" />
        </mxCell>
        <mxCell id="O6g38xV-sDOq5T4I93U4-3" value="" style="edgeStyle=orthogonalEdgeStyle;html=1;verticalAlign=bottom;endArrow=open;endSize=12;strokeColor=#000000;rounded=0;entryX=0.5;entryY=0;entryDx=0;entryDy=0;" edge="1" source="O6g38xV-sDOq5T4I93U4-2" parent="1" target="O6g38xV-sDOq5T4I93U4-1">
          <mxGeometry relative="1" as="geometry">
            <mxPoint x="209" y="325" as="targetPoint" />
          </mxGeometry>
        </mxCell>
        <mxCell id="O6g38xV-sDOq5T4I93U4-4" value="" style="ellipse;html=1;shape=startState;fillColor=#000000;strokeColor=#000000;" vertex="1" parent="1">
          <mxGeometry x="399" y="355" width="30" height="30" as="geometry" />
        </mxCell>
        <mxCell id="O6g38xV-sDOq5T4I93U4-5" value="" style="edgeStyle=orthogonalEdgeStyle;html=1;verticalAlign=bottom;endArrow=open;endSize=12;strokeColor=#000000;rounded=0;entryX=0.5;entryY=0;entryDx=0;entryDy=0;" edge="1" parent="1" source="O6g38xV-sDOq5T4I93U4-4" target="O6g38xV-sDOq5T4I93U4-6">
          <mxGeometry relative="1" as="geometry">
            <mxPoint x="319" y="425" as="targetPoint" />
          </mxGeometry>
        </mxCell>
        <mxCell id="O6g38xV-sDOq5T4I93U4-7" value="onClickCreaAvvisoButton()" style="edgeLabel;html=1;align=center;verticalAlign=middle;resizable=0;points=[];" vertex="1" connectable="0" parent="O6g38xV-sDOq5T4I93U4-5">
          <mxGeometry x="-0.2078" relative="1" as="geometry">
            <mxPoint x="70" y="-6" as="offset" />
          </mxGeometry>
        </mxCell>
        <mxCell id="O6g38xV-sDOq5T4I93U4-6" value="Popup Inserisce Avviso" style="rounded=1;whiteSpace=wrap;html=1;strokeColor=#000000;verticalAlign=top;fontStyle=1" vertex="1" parent="1">
          <mxGeometry x="261.5" y="425" width="305" height="450" as="geometry" />
        </mxCell>
        <mxCell id="O6g38xV-sDOq5T4I93U4-9" value="Inserimento testo&lt;br style=&quot;font-size: 11px;&quot;&gt;&lt;font size=&quot;1&quot;&gt;&lt;span style=&quot;font-weight: 400; font-size: 8px;&quot;&gt;exit / enableConfermaButton()&lt;/span&gt;&lt;/font&gt;" style="rounded=1;whiteSpace=wrap;html=1;strokeColor=#000000;verticalAlign=top;fontStyle=1;align=left;" vertex="1" parent="1">
          <mxGeometry x="354" y="525" width="120" height="60" as="geometry" />
        </mxCell>
        <mxCell id="O6g38xV-sDOq5T4I93U4-10" value="" style="ellipse;html=1;shape=startState;fillColor=#000000;strokeColor=#000000;" vertex="1" parent="1">
          <mxGeometry x="399" y="455" width="30" height="30" as="geometry" />
        </mxCell>
        <mxCell id="O6g38xV-sDOq5T4I93U4-11" value="" style="edgeStyle=orthogonalEdgeStyle;html=1;verticalAlign=bottom;endArrow=open;endSize=12;strokeColor=#000000;rounded=0;entryX=0.5;entryY=0;entryDx=0;entryDy=0;" edge="1" parent="1" source="O6g38xV-sDOq5T4I93U4-10" target="O6g38xV-sDOq5T4I93U4-9">
          <mxGeometry relative="1" as="geometry">
            <mxPoint x="409" y="525" as="targetPoint" />
          </mxGeometry>
        </mxCell>
        <mxCell id="O6g38xV-sDOq5T4I93U4-12" value="" style="endArrow=open;endFill=1;endSize=12;html=1;rounded=0;strokeColor=#000000;fontSize=8;exitX=0.25;exitY=1;exitDx=0;exitDy=0;entryX=0.5;entryY=0;entryDx=0;entryDy=0;" edge="1" parent="1" source="O6g38xV-sDOq5T4I93U4-9" target="O6g38xV-sDOq5T4I93U4-13">
          <mxGeometry width="160" relative="1" as="geometry">
            <mxPoint x="334" y="665" as="sourcePoint" />
            <mxPoint x="494" y="665" as="targetPoint" />
          </mxGeometry>
        </mxCell>
        <mxCell id="O6g38xV-sDOq5T4I93U4-14" value="&lt;span style=&quot;font-size: 10px;&quot;&gt;onClickAnnullaButton()&lt;/span&gt;" style="edgeLabel;html=1;align=center;verticalAlign=middle;resizable=0;points=[];fontSize=8;labelBackgroundColor=none;" vertex="1" connectable="0" parent="O6g38xV-sDOq5T4I93U4-12">
          <mxGeometry x="-0.4171" y="2" relative="1" as="geometry">
            <mxPoint x="-57" y="10" as="offset" />
          </mxGeometry>
        </mxCell>
        <mxCell id="O6g38xV-sDOq5T4I93U4-13" value="" style="ellipse;html=1;shape=endState;fillColor=#000000;strokeColor=#000000;fontSize=8;" vertex="1" parent="1">
          <mxGeometry x="369" y="660" width="30" height="30" as="geometry" />
        </mxCell>
        <mxCell id="O6g38xV-sDOq5T4I93U4-16" value="" style="endArrow=open;endFill=1;endSize=12;html=1;rounded=0;strokeColor=#000000;fontSize=8;entryX=0.25;entryY=0;entryDx=0;entryDy=0;" edge="1" parent="1" target="O6g38xV-sDOq5T4I93U4-18">
          <mxGeometry x="-0.4286" y="30" width="160" relative="1" as="geometry">
            <mxPoint x="444" y="585" as="sourcePoint" />
            <mxPoint x="449" y="675" as="targetPoint" />
            <mxPoint as="offset" />
          </mxGeometry>
        </mxCell>
        <mxCell id="O6g38xV-sDOq5T4I93U4-17" value="&lt;span style=&quot;font-size: 10px;&quot;&gt;onClickConfermaButton()&lt;/span&gt;" style="edgeLabel;html=1;align=center;verticalAlign=middle;resizable=0;points=[];fontSize=8;labelBackgroundColor=none;rotation=90;" vertex="1" connectable="0" parent="O6g38xV-sDOq5T4I93U4-16">
          <mxGeometry x="-0.4171" y="2" relative="1" as="geometry">
            <mxPoint x="9" y="22" as="offset" />
          </mxGeometry>
        </mxCell>
        <mxCell id="O6g38xV-sDOq5T4I93U4-18" value="Popup Conferma" style="rounded=1;whiteSpace=wrap;html=1;strokeColor=#000000;verticalAlign=top;fontStyle=1" vertex="1" parent="1">
          <mxGeometry x="414" y="725" width="120" height="60" as="geometry" />
        </mxCell>
        <mxCell id="O6g38xV-sDOq5T4I93U4-22" value="" style="endArrow=open;endFill=1;endSize=12;html=1;rounded=0;strokeColor=#000000;fontSize=8;entryX=0.5;entryY=0;entryDx=0;entryDy=0;" edge="1" parent="1" target="O6g38xV-sDOq5T4I93U4-24" source="O6g38xV-sDOq5T4I93U4-18">
          <mxGeometry width="160" relative="1" as="geometry">
            <mxPoint x="469" y="885" as="sourcePoint" />
            <mxPoint x="584" y="965" as="targetPoint" />
          </mxGeometry>
        </mxCell>
        <mxCell id="O6g38xV-sDOq5T4I93U4-23" value="&lt;span style=&quot;font-size: 10px;&quot;&gt;onClickConfermaButton()&lt;/span&gt;" style="edgeLabel;html=1;align=center;verticalAlign=middle;resizable=0;points=[];fontSize=8;labelBackgroundColor=none;" vertex="1" connectable="0" parent="O6g38xV-sDOq5T4I93U4-22">
          <mxGeometry x="-0.4171" y="2" relative="1" as="geometry">
            <mxPoint x="-62" y="5" as="offset" />
          </mxGeometry>
        </mxCell>
        <mxCell id="O6g38xV-sDOq5T4I93U4-24" value="" style="ellipse;html=1;shape=endState;fillColor=#000000;strokeColor=#000000;fontSize=8;" vertex="1" parent="1">
          <mxGeometry x="459" y="825" width="30" height="30" as="geometry" />
        </mxCell>
        <mxCell id="O6g38xV-sDOq5T4I93U4-25" value="" style="endArrow=open;endFill=1;endSize=12;html=1;rounded=1;strokeColor=#000000;fontSize=10;exitX=0.75;exitY=0;exitDx=0;exitDy=0;entryX=1;entryY=0.5;entryDx=0;entryDy=0;" edge="1" parent="1" source="O6g38xV-sDOq5T4I93U4-18" target="O6g38xV-sDOq5T4I93U4-9">
          <mxGeometry width="160" relative="1" as="geometry">
            <mxPoint x="489" y="635" as="sourcePoint" />
            <mxPoint x="649" y="635" as="targetPoint" />
            <Array as="points">
              <mxPoint x="504" y="555" />
            </Array>
          </mxGeometry>
        </mxCell>
        <mxCell id="O6g38xV-sDOq5T4I93U4-26" value="onClickAnnullaButton()" style="edgeLabel;html=1;align=center;verticalAlign=middle;resizable=0;points=[];fontSize=10;rotation=90;labelBackgroundColor=none;" vertex="1" connectable="0" parent="O6g38xV-sDOq5T4I93U4-25">
          <mxGeometry x="0.16" y="1" relative="1" as="geometry">
            <mxPoint x="11" y="36" as="offset" />
          </mxGeometry>
        </mxCell>
      </root>
    </mxGraphModel>
  </diagram>
</mxfile>
